<?xml version="1.0" encoding="iso-8859-1"?>
<!-- Uploaded to: SVG Repo, www.svgrepo.com, Generator: SVG Repo Mixer Tools -->
<svg height="800px" width="800px" version="1.1" id="Layer_1" xmlns="http://www.w3.org/2000/svg" xmlns:xlink="http://www.w3.org/1999/xlink" 
	 viewBox="0 0 512 512" xml:space="preserve">
<path style="fill:#FFBE00;" d="M471.463,359.389l-169.297-155.17c-9.194-8.427-7.997-23.29,2.451-30.128L471.297,65.003
	c8.824-5.775,20.661-3.324,26.466,5.483C507.077,84.617,512,101.067,512,118.056v194.488c0,14.707-3.76,29.242-10.874,42.036
	C495.139,365.348,480.608,367.772,471.463,359.389z"/>
<path style="fill:#FFD155;" d="M425.361,399.17H86.639c-31.441,0-60.473-17.086-75.766-44.59
	c-4.305-7.743-2.734-17.428,3.796-23.414l169.297-155.17c6.453-5.915,16.094-6.699,23.42-1.904
	c56.897,37.249,41.498,36.486,97.229,0c7.323-4.793,16.966-4.011,23.42,1.904l169.297,155.17c6.53,5.986,8.102,15.671,3.796,23.414
	C485.834,382.084,456.802,399.17,425.361,399.17z"/>
<g>
	<path style="fill:#FFC72D;" d="M497.33,331.166l-169.297-155.17c-6.453-5.915-16.096-6.697-23.42-1.904
		c-40.056,26.224-40.271,27.579-48.43,27.65v197.429h169.177c31.441,0,60.473-17.086,75.766-44.59
		C505.433,346.837,503.861,337.152,497.33,331.166z"/>
	<path style="fill:#FFC72D;" d="M10.874,354.58C3.76,341.786,0,327.25,0,312.544V118.054c0-16.989,4.923-33.438,14.236-47.569
		c5.805-8.807,17.64-11.258,26.466-5.483l166.681,109.087c10.435,6.83,11.656,21.691,2.451,30.128L40.539,359.389
		C31.395,367.769,16.865,365.357,10.874,354.58z"/>
</g>
<path style="fill:#FFDA79;" d="M255.999,240.033c-23.711,0-14.221,2.331-236.262-142.996c-8.854-5.795-11.328-17.69-5.512-26.536
	c16.09-24.467,43.161-39.074,72.413-39.074h338.722c29.253,0,56.323,14.607,72.413,39.074c5.815,8.842,3.347,20.738-5.512,26.536
	C271.131,241.77,280.08,240.033,255.999,240.033z"/>
<path style="fill:#FFD155;" d="M497.774,70.502c-16.09-24.467-43.161-39.074-72.413-39.074H256.184V240.03
	c23.763-0.074,14.42,2.085,236.08-142.992C501.118,91.243,503.59,79.347,497.774,70.502z"/>
<path style="fill:#51B3DA;" d="M246.754,461.231v-22.289h-84.564c-10.673,0-19.323-8.652-19.323-19.323v-79.871
	c0-10.673,8.652-19.323,19.323-19.323h84.564v-22.287c0-17.052,20.59-25.747,32.804-13.843l83.735,81.546
	c7.796,7.592,7.777,20.113,0,27.688l-83.735,81.548C267.384,486.933,246.754,478.367,246.754,461.231z"/>
<path style="fill:#238CC5;" d="M363.295,365.84l-83.735-81.546c-6.924-6.746-16.533-6.871-23.564-2.613v196.021
	c7.038,4.251,16.659,4.098,23.564-2.626l83.735-81.548C371.072,385.952,371.09,373.43,363.295,365.84z"/>
</svg>